<?xml version="1.0" encoding="UTF-8" standalone="no"?><!DOCTYPE svg PUBLIC "-//W3C//DTD SVG 1.1//EN" "http://www.w3.org/Graphics/SVG/1.1/DTD/svg11.dtd"><svg width="100%" height="100%" viewBox="0 0 195 126" version="1.1" xmlns="http://www.w3.org/2000/svg" xmlns:xlink="http://www.w3.org/1999/xlink" xml:space="preserve" style="fill-rule:evenodd;clip-rule:evenodd;stroke-linejoin:round;stroke-miterlimit:1.41421;"><g><path d="M143.344,76.819c2,17 -7,31 -23,34c-16,2 -39,-7 -54,-5c-16,2 -24,16 -35,19c-11,3 -24,-4 -29,-15c-5,-11 -2,-27 9,-42c11,-16 29,-31 48,-39c18,-8 36,-10 52,0c16,10 29,30 32,48Z" style="fill:#f85d03;"/><path d="M194.761,99.284c-1.347,10.282 -12.558,17.305 -25.02,15.673c-12.462,-1.632 -21.486,-11.305 -20.14,-21.587c1.347,-10.282 12.558,-17.305 25.02,-15.673c12.462,1.632 21.486,11.305 20.14,21.587Z" style="fill:#f85d03;"/><path d="M182.947,53.752c2.693,7.709 -2.705,16.619 -12.049,19.884c-9.343,3.265 -19.116,-0.343 -21.81,-8.052c-2.694,-7.709 2.705,-16.619 12.048,-19.884c9.344,-3.265 19.117,0.343 21.811,8.052Z" style="fill:#f85d03;"/><path d="M161.765,25.496c3.744,5.851 1.026,14.285 -6.066,18.822c-7.092,4.538 -15.889,3.471 -19.632,-2.38c-3.744,-5.851 -1.026,-14.285 6.066,-18.823c7.091,-4.537 15.888,-3.471 19.632,2.381Z" style="fill:#f85d03;"/><path d="M138.096,7.084c4.24,4.128 3.621,11.652 -1.383,16.791c-5.003,5.139 -12.507,5.96 -16.747,1.832c-4.24,-4.128 -3.621,-11.651 1.382,-16.79c5.004,-5.14 12.508,-5.96 16.748,-1.833Z" style="fill:#f85d03;"/><path d="M112.148,0.543c4.02,1.732 5.58,7.093 3.481,11.966c-2.099,4.872 -7.067,7.422 -11.087,5.69c-4.02,-1.732 -5.579,-7.093 -3.48,-11.966c2.098,-4.872 7.066,-7.422 11.086,-5.69Z" style="fill:#f85d03;"/></g></svg>