<?xml version="1.0" encoding="UTF-8" standalone="no"?><!DOCTYPE svg PUBLIC "-//W3C//DTD SVG 1.1//EN" "http://www.w3.org/Graphics/SVG/1.1/DTD/svg11.dtd"><svg width="100%" height="100%" viewBox="0 0 196 121" version="1.1" xmlns="http://www.w3.org/2000/svg" xmlns:xlink="http://www.w3.org/1999/xlink" xml:space="preserve" style="fill-rule:evenodd;clip-rule:evenodd;stroke-linejoin:round;stroke-miterlimit:1.41421;"><g><path d="M145.345,40.875c1,-17 -10,-30 -26,-31c-16,-1 -38,10 -53,9c-16,-1 -26,-13 -37,-15c-11,-2 -24,6 -28,17c-4,12 1,27 14,41c12,15 32,28 51,35c19,7 37,6 52,-5c15,-11 26,-33 27,-51Z" style="fill:#f85d03;"/><path d="M194.804,13.981c-2.288,-10.114 -14.099,-16.074 -26.357,-13.301c-12.259,2.773 -20.354,13.237 -18.066,23.351c2.289,10.114 14.099,16.074 26.358,13.301c12.258,-2.774 20.353,-13.237 18.065,-23.351Z" style="fill:#f85d03;"/><path d="M187.235,60.408c1.972,-7.925 -4.224,-16.299 -13.829,-18.689c-9.605,-2.39 -19.004,2.103 -20.976,10.027c-1.972,7.925 4.225,16.299 13.83,18.689c9.604,2.39 19.003,-2.103 20.975,-10.027Z" style="fill:#f85d03;"/><path d="M168.748,90.496c3.188,-6.171 -0.295,-14.319 -7.775,-18.183c-7.48,-3.865 -16.141,-1.993 -19.33,4.179c-3.188,6.171 0.296,14.319 7.775,18.183c7.48,3.865 16.141,1.992 19.33,-4.179Z" style="fill:#f85d03;"/><path d="M146.876,111.009c3.841,-4.501 2.531,-11.935 -2.924,-16.591c-5.456,-4.657 -13.004,-4.783 -16.846,-0.282c-3.841,4.501 -2.531,11.936 2.924,16.592c5.456,4.657 13.004,4.782 16.846,0.281Z" style="fill:#f85d03;"/><path d="M121.641,119.914c3.843,-2.095 4.902,-7.577 2.363,-12.236c-2.539,-4.658 -7.72,-6.739 -11.564,-4.644c-3.843,2.095 -4.902,7.577 -2.363,12.235c2.539,4.659 7.721,6.74 11.564,4.645Z" style="fill:#f85d03;"/></g></svg>