<?xml version="1.0" encoding="UTF-8" standalone="no"?><!DOCTYPE svg PUBLIC "-//W3C//DTD SVG 1.1//EN" "http://www.w3.org/Graphics/SVG/1.1/DTD/svg11.dtd"><svg width="100%" height="100%" viewBox="0 0 87 101" version="1.1" xmlns="http://www.w3.org/2000/svg" xmlns:xlink="http://www.w3.org/1999/xlink" xml:space="preserve" xmlns:serif="http://www.serif.com/" style="fill-rule:evenodd;clip-rule:evenodd;stroke-linejoin:round;stroke-miterlimit:1.41421;"><g><path d="M52.509,31.424c-7.842,-5.165 -17.083,-3.496 -21.972,3.869c-4.889,7.365 -5.702,20.904 -10.315,27.792c-4.889,7.365 -13.377,8.832 -17.365,13.533c-3.988,4.702 -3.752,13.116 0.399,18.059c4.627,5.219 13.169,6.966 23.439,4.618c10.472,-1.595 22.194,-7.561 30.776,-14.705c8.581,-7.143 13.066,-16.015 11.949,-26.211c-1.117,-10.196 -8.59,-21.515 -16.911,-26.955Z" style="fill:#f85d03;"/><path d="M53.303,0.39c-5.461,-1.696 -11.564,2.301 -13.619,8.919c-2.056,6.619 0.709,13.37 6.17,15.066c5.461,1.695 11.563,-2.301 13.619,-8.92c2.055,-6.619 -0.71,-13.369 -6.17,-15.065Z" style="fill:#f85d03;"/><path d="M73.387,16.805c-3.241,-3.127 -8.948,-2.477 -12.738,1.451c-3.789,3.928 -4.235,9.655 -0.995,12.782c3.241,3.126 8.949,2.476 12.738,-1.452c3.79,-3.927 4.235,-9.655 0.995,-12.781Z" style="fill:#f85d03;"/><path d="M82.658,33.929c-2.068,-3.224 -6.919,-3.807 -10.827,-1.3c-3.908,2.506 -5.402,7.158 -3.333,10.383c2.068,3.224 6.919,3.806 10.826,1.3c3.909,-2.506 5.402,-7.159 3.334,-10.383Z" style="fill:#f85d03;"/><path d="M86.424,50.03c-1.091,-3.076 -5.002,-4.5 -8.729,-3.178c-3.729,1.321 -5.87,4.891 -4.78,7.967c1.091,3.075 5.003,4.499 8.73,3.178c3.728,-1.322 5.869,-4.892 4.779,-7.967Z" style="fill:#f85d03;"/><path d="M83.719,64.536c0.059,-2.413 -2.267,-4.43 -5.192,-4.502c-2.924,-0.072 -5.347,1.828 -5.406,4.242c-0.059,2.413 2.267,4.43 5.191,4.502c2.925,0.072 5.348,-1.829 5.407,-4.242Z" style="fill:#f85d03;"/></g></svg>